<svg width="22" height="20" viewBox="0 0 22 20" fill="none" xmlns="http://www.w3.org/2000/svg">
<path fill-rule="evenodd" clip-rule="evenodd" d="M13.1716 5.57377C13.1716 8.27762 10.959 10.4444 8.198 10.4444C5.43803 10.4444 3.22445 8.27762 3.22445 5.57377C3.22445 2.86993 5.43803 0.703125 8.198 0.703125C10.959 0.703125 13.1716 2.86993 13.1716 5.57377ZM0.681641 15.9595C0.681641 13.4566 4.14411 12.8304 8.198 12.8304C12.2739 12.8304 15.7144 13.4781 15.7144 15.983C15.7144 18.486 12.2519 19.1122 8.198 19.1122C4.1221 19.1122 0.681641 18.4644 0.681641 15.9595ZM15.1772 5.66207C15.1772 7.03899 14.7549 8.32378 14.0144 9.39101C13.9373 9.50077 14.0053 9.64875 14.1394 9.67227C14.3256 9.70265 14.5167 9.72127 14.7119 9.72519C16.6532 9.77517 18.3955 8.55114 18.8768 6.70774C19.5903 3.97254 17.4968 1.51663 14.8299 1.51663C14.5407 1.51663 14.2635 1.54603 13.9933 1.59993C13.9563 1.60777 13.9163 1.62541 13.8963 1.65677C13.8703 1.69695 13.8893 1.74889 13.9153 1.78319C14.7169 2.88374 15.1772 4.22342 15.1772 5.66207ZM18.3925 11.6487C19.6974 11.8986 20.555 12.4072 20.9103 13.1491C21.2115 13.7567 21.2115 14.4623 20.9103 15.0699C20.3669 16.2184 18.6136 16.5879 17.9321 16.683C17.791 16.7026 17.678 16.585 17.693 16.4458C18.0412 13.2627 15.2723 11.7535 14.5557 11.4066C14.5257 11.3899 14.5187 11.3664 14.5217 11.3507C14.5237 11.3409 14.5367 11.3253 14.5597 11.3223C16.1098 11.2929 17.777 11.5017 18.3925 11.6487Z" fill="white"/>
</svg>
