<svg width="124" height="39" viewBox="0 0 124 39" fill="none" xmlns="http://www.w3.org/2000/svg">
<rect width="123.393" height="39" fill="#BE7136"/>
<path d="M50.7797 28.5995L49.6753 25.7616H45.1716L44.0959 28.5995H42.5898L46.6346 18.4376H48.2553L52.3001 28.5995H50.7797ZM47.4091 19.8996L45.6736 24.4573H49.1733L47.4091 19.8996ZM54.8586 31.3227H53.5247V21.7055H54.8299V22.7804C55.0307 22.4173 55.3319 22.1211 55.7335 21.8918C56.1351 21.6625 56.6037 21.5478 57.1391 21.5478C58.1336 21.5478 58.9081 21.887 59.4627 22.5654C60.0269 23.2438 60.3089 24.1038 60.3089 25.1453C60.3089 26.1964 60.0173 27.0659 59.434 27.7538C58.8603 28.4418 58.081 28.7858 57.0961 28.7858C56.5893 28.7858 56.1399 28.6807 55.7479 28.4705C55.3558 28.2603 55.0594 27.9927 54.8586 27.6678V31.3227ZM58.932 25.1453C58.932 24.4478 58.7455 23.8745 58.3726 23.4254C58.0093 22.9667 57.5168 22.7374 56.8953 22.7374C56.2833 22.7374 55.7861 22.9667 55.4036 23.4254C55.0307 23.8745 54.8442 24.4478 54.8442 25.1453C54.8442 25.8619 55.0307 26.4496 55.4036 26.9082C55.7861 27.3573 56.2833 27.5818 56.8953 27.5818C57.5073 27.5818 57.9997 27.3573 58.3726 26.9082C58.7455 26.4496 58.932 25.8619 58.932 25.1453ZM63.3608 31.3227H62.0269V21.7055H63.3321V22.7804C63.5329 22.4173 63.8341 22.1211 64.2357 21.8918C64.6373 21.6625 65.1058 21.5478 65.6413 21.5478C66.6358 21.5478 67.4103 21.887 67.9649 22.5654C68.529 23.2438 68.8111 24.1038 68.8111 25.1453C68.8111 26.1964 68.5195 27.0659 67.9362 27.7538C67.3625 28.4418 66.5832 28.7858 65.5983 28.7858C65.0915 28.7858 64.6421 28.6807 64.2501 28.4705C63.858 28.2603 63.5616 27.9927 63.3608 27.6678V31.3227ZM67.4342 25.1453C67.4342 24.4478 67.2477 23.8745 66.8748 23.4254C66.5115 22.9667 66.019 22.7374 65.3975 22.7374C64.7855 22.7374 64.2883 22.9667 63.9058 23.4254C63.5329 23.8745 63.3464 24.4478 63.3464 25.1453C63.3464 25.8619 63.5329 26.4496 63.9058 26.9082C64.2883 27.3573 64.7855 27.5818 65.3975 27.5818C66.0095 27.5818 66.5019 27.3573 66.8748 26.9082C67.2477 26.4496 67.4342 25.8619 67.4342 25.1453ZM80.7416 20.7452L79.4794 21.1895C79.4125 20.75 79.1973 20.3534 78.834 19.9999C78.4706 19.6368 77.9686 19.4553 77.3279 19.4553C76.7638 19.4553 76.2952 19.6177 75.9223 19.9426C75.5491 20.2674 75.3626 20.6688 75.3626 21.1465C75.3626 21.5192 75.4726 21.8345 75.6925 22.0925C75.9223 22.3504 76.2474 22.5272 76.6682 22.6228L78.1885 22.9524C79.03 23.134 79.6802 23.4779 80.1392 23.9844C80.5981 24.4812 80.8276 25.088 80.8276 25.8046C80.8276 26.6263 80.5025 27.3334 79.8523 27.9258C79.2021 28.5182 78.3559 28.8144 77.3136 28.8144C76.1757 28.8144 75.2813 28.5182 74.6311 27.9258C73.9905 27.3239 73.6175 26.612 73.5124 25.7903L74.8606 25.3603C74.918 25.9718 75.157 26.4878 75.5778 26.9082C75.9988 27.3286 76.5725 27.5388 77.2993 27.5388C77.9686 27.5388 78.4849 27.386 78.8483 27.0802C79.2117 26.7744 79.3933 26.3875 79.3933 25.9193C79.3933 25.5371 79.2642 25.2074 79.0061 24.9303C78.7479 24.6437 78.3702 24.4478 77.873 24.3427L76.4243 24.0274C75.6686 23.8649 75.0662 23.5448 74.6168 23.0671C74.1674 22.5893 73.9426 21.9826 73.9426 21.2468C73.9426 20.4442 74.2678 19.7419 74.918 19.1399C75.5778 18.5284 76.3717 18.2227 77.2993 18.2227C78.3415 18.2227 79.1399 18.4759 79.6945 18.9823C80.2491 19.4887 80.5981 20.0763 80.7416 20.7452ZM84.2843 19.5269V21.7055H85.776V22.9237H84.2843V26.5069C84.2843 26.8318 84.356 27.0706 84.4994 27.2235C84.6524 27.3764 84.9011 27.4528 85.2453 27.4528C85.4461 27.4528 85.623 27.4337 85.776 27.3955V28.5421C85.5465 28.6281 85.2405 28.6711 84.858 28.6711C84.2652 28.6711 83.7966 28.4991 83.4524 28.1551C83.1082 27.8112 82.9361 27.3286 82.9361 26.7076V22.9237H81.6165V21.7055H81.9894C82.3432 21.7055 82.6062 21.6099 82.7783 21.4188C82.96 21.2182 83.0508 20.9602 83.0508 20.6449V19.5269H84.2843ZM88.9253 26.9655C89.346 27.3955 89.8576 27.6105 90.46 27.6105C91.0624 27.6105 91.5692 27.3955 91.9804 26.9655C92.4011 26.526 92.6114 25.9193 92.6114 25.1453C92.6114 24.3809 92.4011 23.7837 91.9804 23.3537C91.5692 22.9142 91.0624 22.6944 90.46 22.6944C89.8576 22.6944 89.346 22.9142 88.9253 23.3537C88.5141 23.7837 88.3085 24.3809 88.3085 25.1453C88.3085 25.9193 88.5141 26.526 88.9253 26.9655ZM87.9213 22.5368C88.5906 21.8392 89.4369 21.4905 90.46 21.4905C91.4831 21.4905 92.3246 21.8392 92.9844 22.5368C93.6537 23.2247 93.9884 24.0942 93.9884 25.1453C93.9884 26.2059 93.6585 27.085 92.9987 27.7825C92.3389 28.4705 91.4927 28.8144 90.46 28.8144C89.4273 28.8144 88.5811 28.4705 87.9213 27.7825C87.2615 27.085 86.9316 26.2059 86.9316 25.1453C86.9316 24.0942 87.2615 23.2247 87.9213 22.5368ZM99.5432 21.6338V23.0671C99.3424 23.0384 99.1464 23.0241 98.9552 23.0241C97.693 23.0241 97.0619 23.7312 97.0619 25.1453V28.5995H95.7136V21.7055H97.0332V22.9094C97.4539 22.0304 98.1424 21.5908 99.0986 21.5908C99.2516 21.5908 99.3998 21.6051 99.5432 21.6338ZM101.785 24.443H105.557C105.538 23.927 105.366 23.5066 105.041 23.1817C104.716 22.8473 104.257 22.6801 103.664 22.6801C103.128 22.6801 102.688 22.8569 102.344 23.2104C102 23.5544 101.814 23.9653 101.785 24.443ZM105.758 26.2346L106.92 26.6359C106.719 27.2761 106.346 27.8016 105.801 28.2125C105.256 28.6138 104.596 28.8144 103.822 28.8144C102.856 28.8144 102.033 28.4848 101.355 27.8255C100.685 27.1566 100.351 26.2585 100.351 25.131C100.351 24.0799 100.676 23.2104 101.326 22.5224C101.976 21.8345 102.751 21.4905 103.649 21.4905C104.692 21.4905 105.504 21.8201 106.088 22.4794C106.671 23.1292 106.963 24.0035 106.963 25.1023C106.963 25.2743 106.953 25.4176 106.934 25.5323H101.742C101.751 26.1438 101.952 26.6454 102.344 27.0372C102.746 27.429 103.238 27.6248 103.822 27.6248C104.806 27.6248 105.452 27.1614 105.758 26.2346Z" fill="white"/>
<path opacity="0.6" d="M43.6427 12.2034V9.73H44.2492C44.883 9.73 45.4076 10.1286 45.4076 10.9694C45.4076 11.8103 44.8776 12.2034 44.2437 12.2034H43.6427ZM44.2711 12.9023C45.3748 12.9023 46.1889 12.1925 46.1889 10.9694C46.1889 9.74638 45.3803 9.03112 44.2765 9.03112H42.8887V12.9023H44.2711ZM48.0775 10.964C48.0775 10.0904 48.6895 9.6754 49.285 9.6754C49.8861 9.6754 50.4981 10.0904 50.4981 10.964C50.4981 11.8376 49.8861 12.2525 49.285 12.2525C48.6895 12.2525 48.0775 11.8376 48.0775 10.964ZM47.2961 10.9694C47.2961 12.2143 48.236 12.9842 49.285 12.9842C50.3396 12.9842 51.2794 12.2143 51.2794 10.9694C51.2794 9.71908 50.3396 8.94922 49.285 8.94922C48.236 8.94922 47.2961 9.71908 47.2961 10.9694ZM56.1216 11.7065L55.2583 9.03112H54.4769L53.6191 11.6956L52.9088 9.03112H52.111L53.1874 12.9023H53.9742L54.8594 10.145L55.7446 12.9023H56.5205L57.5914 9.03112H56.821L56.1216 11.7065ZM62.0901 12.9023V9.03112H61.3361V11.5919L59.7242 9.03112H58.7844V12.9023H59.5385V10.1559L61.2979 12.9023H62.0901ZM66.1369 12.9023V12.1816H64.4102V9.03112H63.6562V12.9023H66.1369ZM67.8204 10.964C67.8204 10.0904 68.4324 9.6754 69.028 9.6754C69.629 9.6754 70.241 10.0904 70.241 10.964C70.241 11.8376 69.629 12.2525 69.028 12.2525C68.4324 12.2525 67.8204 11.8376 67.8204 10.964ZM67.0391 10.9694C67.0391 12.2143 67.9789 12.9842 69.028 12.9842C70.0825 12.9842 71.0224 12.2143 71.0224 10.9694C71.0224 9.71908 70.0825 8.94922 69.028 8.94922C67.9789 8.94922 67.0391 9.71908 67.0391 10.9694ZM74.8005 12.9023H75.6201L74.1448 9.03112H73.2706L71.7844 12.9023H72.5821L72.9045 12.0178H74.4781L74.8005 12.9023ZM73.6913 9.8665L74.2268 11.3298H73.1558L73.6913 9.8665ZM77.5523 12.2034V9.73H78.1588C78.7926 9.73 79.3172 10.1286 79.3172 10.9694C79.3172 11.8103 78.7872 12.2034 78.1534 12.2034H77.5523ZM78.1807 12.9023C79.2844 12.9023 80.0985 12.1925 80.0985 10.9694C80.0985 9.74638 79.2899 9.03112 78.1861 9.03112H76.7983V12.9023H78.1807ZM84.0203 10.964C84.0203 10.0904 84.6323 9.6754 85.2279 9.6754C85.8289 9.6754 86.4409 10.0904 86.4409 10.964C86.4409 11.8376 85.8289 12.2525 85.2279 12.2525C84.6323 12.2525 84.0203 11.8376 84.0203 10.964ZM83.239 10.9694C83.239 12.2143 84.1788 12.9842 85.2279 12.9842C86.2824 12.9842 87.2222 12.2143 87.2222 10.9694C87.2222 9.71908 86.2824 8.94922 85.2279 8.94922C84.1788 8.94922 83.239 9.71908 83.239 10.9694ZM91.8646 12.9023V9.03112H91.1106V11.5919L89.4987 9.03112H88.5589V12.9023H89.3129V10.1559L91.0723 12.9023H91.8646ZM98.3162 9.74638V9.03112H95.1088V9.74638H96.3328V12.9023H97.0923V9.74638H98.3162ZM102.732 12.9023V9.03112H101.972V10.5872H100.284V9.03112H99.5299V12.9023H100.284V11.297H101.972V12.9023H102.732ZM106.726 12.9023V12.1925H105.054V11.297H106.568V10.6254H105.054V9.74092H106.726V9.03112H104.3V12.9023H106.726Z" fill="white"/>
<path d="M33.4809 24.5175C33.0374 25.499 32.8257 25.9371 32.2545 26.8043C31.4589 28.0154 30.3361 29.5237 28.9449 29.5365C27.7092 29.548 27.3916 28.7328 25.7139 28.7426C24.0363 28.7525 23.6867 29.551 22.4509 29.5395C21.0597 29.5271 19.9968 28.165 19.2002 26.9532C16.9736 23.5662 16.741 19.5919 18.1143 17.4792C19.0901 15.9768 20.6303 15.099 22.0778 15.099C23.5518 15.099 24.4786 15.9064 25.6977 15.9064C26.8802 15.9064 27.6003 15.0977 29.3048 15.0977C30.5932 15.0977 31.9583 15.7985 32.9311 17.0095C29.7436 18.7546 30.2619 23.3014 33.4809 24.5175Z" fill="white"/>
<path d="M28.1906 12.979C28.8099 12.1847 29.2795 11.0642 29.1087 9.91797C28.0971 9.98711 26.9146 10.6304 26.2239 11.4686C25.5969 12.2291 25.079 13.3574 25.2805 14.454C26.384 14.4886 27.5268 13.8295 28.1906 12.979Z" fill="white"/>
</svg>
