<svg width="170" height="54" viewBox="0 0 170 54" fill="none" xmlns="http://www.w3.org/2000/svg">
<rect width="169.27" height="53.5" fill="#18181B"/>
<path d="M69.6586 39.2348L68.1436 35.3419H61.9655L60.4898 39.2348H58.4238L63.9724 25.2949H66.1957L71.7443 39.2348H69.6586ZM65.0349 27.3004L62.6541 33.5527H67.455L65.0349 27.3004ZM75.254 42.9705H73.4242V29.7777H75.2147V31.2523C75.4901 30.7542 75.9033 30.3479 76.4542 30.0333C77.0052 29.7187 77.6479 29.5614 78.3825 29.5614C79.7466 29.5614 80.8091 30.0268 81.5699 30.9574C82.3438 31.888 82.7308 33.0677 82.7308 34.4964C82.7308 35.9383 82.3307 37.1311 81.5306 38.0748C80.7435 39.0186 79.6745 39.4904 78.3234 39.4904C77.6282 39.4904 77.0117 39.3463 76.4739 39.0579C75.9361 38.7695 75.5295 38.4025 75.254 37.9569V42.9705ZM80.8419 34.4964C80.8419 33.5396 80.5861 32.7531 80.0746 32.1371C79.5761 31.5079 78.9006 31.1933 78.048 31.1933C77.2085 31.1933 76.5264 31.5079 76.0017 32.1371C75.4901 32.7531 75.2343 33.5396 75.2343 34.4964C75.2343 35.4795 75.4901 36.2856 76.0017 36.9148C76.5264 37.5309 77.2085 37.8389 78.048 37.8389C78.8875 37.8389 79.563 37.5309 80.0746 36.9148C80.5861 36.2856 80.8419 35.4795 80.8419 34.4964ZM86.9173 42.9705H85.0875V29.7777H86.8779V31.2523C87.1534 30.7542 87.5666 30.3479 88.1175 30.0333C88.6684 29.7187 89.3112 29.5614 90.0457 29.5614C91.4099 29.5614 92.4724 30.0268 93.2332 30.9574C94.0071 31.888 94.3941 33.0677 94.3941 34.4964C94.3941 35.9383 93.994 37.1311 93.1938 38.0748C92.4068 39.0186 91.3378 39.4904 89.9867 39.4904C89.2915 39.4904 88.675 39.3463 88.1372 39.0579C87.5994 38.7695 87.1928 38.4025 86.9173 37.9569V42.9705ZM92.5052 34.4964C92.5052 33.5396 92.2494 32.7531 91.7378 32.1371C91.2394 31.5079 90.5639 31.1933 89.7112 31.1933C88.8717 31.1933 88.1896 31.5079 87.665 32.1371C87.1534 32.7531 86.8976 33.5396 86.8976 34.4964C86.8976 35.4795 87.1534 36.2856 87.665 36.9148C88.1896 37.5309 88.8717 37.8389 89.7112 37.8389C90.5507 37.8389 91.2263 37.5309 91.7378 36.9148C92.2494 36.2856 92.5052 35.4795 92.5052 34.4964ZM110.76 28.4604L109.029 29.0699C108.937 28.467 108.642 27.923 108.143 27.438C107.645 26.9399 106.956 26.6909 106.077 26.6909C105.303 26.6909 104.661 26.9137 104.149 27.3594C103.637 27.805 103.381 28.3555 103.381 29.0109C103.381 29.5221 103.532 29.9547 103.834 30.3086C104.149 30.6625 104.595 30.905 105.172 31.036L107.258 31.4883C108.412 31.7373 109.304 32.2092 109.934 32.9039C110.563 33.5855 110.878 34.4178 110.878 35.4009C110.878 36.5281 110.432 37.4981 109.54 38.3108C108.648 39.1234 107.487 39.5298 106.058 39.5298C104.497 39.5298 103.27 39.1234 102.378 38.3108C101.499 37.485 100.987 36.5085 100.843 35.3812L102.693 34.7914C102.771 35.6303 103.099 36.3381 103.676 36.9148C104.254 37.4915 105.041 37.7799 106.038 37.7799C106.956 37.7799 107.665 37.5702 108.163 37.1507C108.661 36.7313 108.911 36.2004 108.911 35.5582C108.911 35.0339 108.734 34.5816 108.379 34.2015C108.025 33.8083 107.507 33.5396 106.825 33.3954L104.838 32.9629C103.801 32.74 102.975 32.3009 102.358 31.6455C101.742 30.9902 101.433 30.1578 101.433 29.1486C101.433 28.0475 101.879 27.0841 102.771 26.2583C103.676 25.4194 104.766 25 106.038 25C107.468 25 108.563 25.3474 109.324 26.0421C110.085 26.7368 110.563 27.5429 110.76 28.4604ZM115.62 26.7892V29.7777H117.666V31.4489H115.62V36.3643C115.62 36.8099 115.718 37.1376 115.915 37.3474C116.125 37.5571 116.466 37.6619 116.938 37.6619C117.214 37.6619 117.456 37.6357 117.666 37.5833V39.1562C117.352 39.2742 116.932 39.3331 116.407 39.3331C115.594 39.3331 114.951 39.0972 114.479 38.6253C114.007 38.1535 113.771 37.4915 113.771 36.6395V31.4489H111.96V29.7777H112.472C112.957 29.7777 113.318 29.6466 113.554 29.3845C113.803 29.1092 113.928 28.7553 113.928 28.3228V26.7892H115.62ZM121.987 36.9934C122.564 37.5833 123.265 37.8782 124.092 37.8782C124.918 37.8782 125.613 37.5833 126.177 36.9934C126.755 36.3905 127.043 35.5582 127.043 34.4964C127.043 33.4478 126.755 32.6286 126.177 32.0388C125.613 31.4358 124.918 31.1344 124.092 31.1344C123.265 31.1344 122.564 31.4358 121.987 32.0388C121.423 32.6286 121.141 33.4478 121.141 34.4964C121.141 35.5582 121.423 36.3905 121.987 36.9934ZM120.609 30.9181C121.527 29.9612 122.688 29.4828 124.092 29.4828C125.495 29.4828 126.65 29.9612 127.555 30.9181C128.473 31.8618 128.932 33.0546 128.932 34.4964C128.932 35.9514 128.48 37.1573 127.574 38.1141C126.669 39.0579 125.508 39.5298 124.092 39.5298C122.675 39.5298 121.514 39.0579 120.609 38.1141C119.704 37.1573 119.252 35.9514 119.252 34.4964C119.252 33.0546 119.704 31.8618 120.609 30.9181ZM136.552 29.6794V31.6455C136.277 31.6062 136.008 31.5866 135.745 31.5866C134.014 31.5866 133.148 32.5565 133.148 34.4964V39.2348H131.299V29.7777H133.109V31.4293C133.686 30.2234 134.631 29.6204 135.942 29.6204C136.152 29.6204 136.355 29.6401 136.552 29.6794ZM139.627 33.533H144.802C144.776 32.8252 144.54 32.2485 144.094 31.8028C143.648 31.3441 143.018 31.1147 142.205 31.1147C141.47 31.1147 140.867 31.3572 140.395 31.8422C139.922 32.314 139.667 32.8777 139.627 33.533ZM145.077 35.9907L146.671 36.5412C146.396 37.4194 145.884 38.1404 145.136 38.704C144.389 39.2545 143.484 39.5298 142.421 39.5298C141.096 39.5298 139.968 39.0776 139.037 38.1731C138.119 37.2556 137.66 36.0235 137.66 34.4768C137.66 33.035 138.106 31.8422 138.998 30.8984C139.89 29.9547 140.952 29.4828 142.185 29.4828C143.615 29.4828 144.73 29.935 145.53 30.8394C146.33 31.7307 146.73 32.9301 146.73 34.4375C146.73 34.6734 146.717 34.87 146.691 35.0273H139.568C139.581 35.8662 139.857 36.5543 140.395 37.0917C140.945 37.6292 141.621 37.8979 142.421 37.8979C143.772 37.8979 144.658 37.2621 145.077 35.9907Z" fill="white"/>
<path opacity="0.6" d="M59.8684 16.7414V13.3484H60.7004C61.5698 13.3484 62.2894 13.8952 62.2894 15.0487C62.2894 16.2021 61.5623 16.7414 60.6929 16.7414H59.8684ZM60.7303 17.7001C62.2444 17.7001 63.3613 16.7264 63.3613 15.0487C63.3613 13.3709 62.2519 12.3897 60.7378 12.3897H58.834V17.7001H60.7303ZM65.952 15.0412C65.952 13.8428 66.7915 13.2735 67.6085 13.2735C68.433 13.2735 69.2725 13.8428 69.2725 15.0412C69.2725 16.2396 68.433 16.8088 67.6085 16.8088C66.7915 16.8088 65.952 16.2396 65.952 15.0412ZM64.8801 15.0487C64.8801 16.7564 66.1694 17.8125 67.6085 17.8125C69.0551 17.8125 70.3443 16.7564 70.3443 15.0487C70.3443 13.3334 69.0551 12.2773 67.6085 12.2773C66.1694 12.2773 64.8801 13.3334 64.8801 15.0487ZM76.9869 16.0598L75.8026 12.3897H74.7307L73.5539 16.0448L72.5795 12.3897H71.4852L72.9618 17.7001H74.0411L75.2554 13.9177L76.4697 17.7001H77.534L79.0031 12.3897H77.9463L76.9869 16.0598ZM85.1745 17.7001V12.3897H84.1401V15.9025L81.9289 12.3897H80.6397V17.7001H81.6741V13.9326L84.0876 17.7001H85.1745ZM90.7257 17.7001V16.7115H88.3571V12.3897H87.3228V17.7001H90.7257ZM93.0353 15.0412C93.0353 13.8428 93.8748 13.2735 94.6918 13.2735C95.5163 13.2735 96.3558 13.8428 96.3558 15.0412C96.3558 16.2396 95.5163 16.8088 94.6918 16.8088C93.8748 16.8088 93.0353 16.2396 93.0353 15.0412ZM91.9634 15.0487C91.9634 16.7564 93.2526 17.8125 94.6918 17.8125C96.1384 17.8125 97.4276 16.7564 97.4276 15.0487C97.4276 13.3334 96.1384 12.2773 94.6918 12.2773C93.2526 12.2773 91.9634 13.3334 91.9634 15.0487ZM102.61 17.7001H103.735L101.711 12.3897H100.512L98.473 17.7001H99.5673L100.01 16.4868H102.168L102.61 17.7001ZM101.089 13.5357L101.823 15.543H100.354L101.089 13.5357ZM106.385 16.7414V13.3484H107.217C108.087 13.3484 108.806 13.8952 108.806 15.0487C108.806 16.2021 108.079 16.7414 107.21 16.7414H106.385ZM107.247 17.7001C108.761 17.7001 109.878 16.7264 109.878 15.0487C109.878 13.3709 108.769 12.3897 107.255 12.3897H105.351V17.7001H107.247ZM115.258 15.0412C115.258 13.8428 116.098 13.2735 116.915 13.2735C117.739 13.2735 118.579 13.8428 118.579 15.0412C118.579 16.2396 117.739 16.8088 116.915 16.8088C116.098 16.8088 115.258 16.2396 115.258 15.0412ZM114.186 15.0487C114.186 16.7564 115.476 17.8125 116.915 17.8125C118.361 17.8125 119.651 16.7564 119.651 15.0487C119.651 13.3334 118.361 12.2773 116.915 12.2773C115.476 12.2773 114.186 13.3334 114.186 15.0487ZM126.019 17.7001V12.3897H124.985V15.9025L122.773 12.3897H121.484V17.7001H122.519V13.9326L124.932 17.7001H126.019ZM134.869 13.3709V12.3897H130.469V13.3709H132.148V17.7001H133.19V13.3709H134.869ZM140.927 17.7001V12.3897H139.885V14.5244H137.569V12.3897H136.534V17.7001H137.569V15.4981H139.885V17.7001H140.927ZM146.406 17.7001V16.7264H144.112V15.4981H146.188V14.5768H144.112V13.3634H146.406V12.3897H143.078V17.7001H146.406Z" fill="white"/>
<path d="M45.9291 33.6331C45.3207 34.9795 45.0302 35.5805 44.2468 36.7701C43.1552 38.4314 41.6151 40.5005 39.7067 40.518C38.0115 40.5338 37.5758 39.4156 35.2744 39.429C32.9731 39.4425 32.4935 40.5379 30.7982 40.5221C28.8897 40.5052 27.4317 38.6367 26.3389 36.9743C23.2845 32.3281 22.9654 26.8762 24.8492 23.9779C26.1879 21.9169 28.3007 20.7127 30.2864 20.7127C32.3084 20.7127 33.5798 21.8204 35.2522 21.8204C36.8742 21.8204 37.8621 20.7109 40.2003 20.7109C41.9677 20.7109 43.8403 21.6724 45.1749 23.3336C40.8023 25.7275 41.5133 31.9647 45.9291 33.6331Z" fill="white"/>
<path d="M38.6737 17.8007C39.5233 16.7111 40.1675 15.1739 39.9332 13.6016C38.5454 13.6964 36.9233 14.5788 35.9759 15.7286C35.1157 16.772 34.4053 18.3197 34.6817 19.8241C36.1955 19.8716 37.7631 18.9674 38.6737 17.8007Z" fill="white"/>
</svg>
