<svg width="178" height="54" viewBox="0 0 178 54" fill="none" xmlns="http://www.w3.org/2000/svg">
<rect x="0.443359" width="177.164" height="53.5" fill="#18181B"/>
<path d="M66.2889 39.0317H64.734L64.5569 37.0656C64.2157 37.6816 63.6581 38.2125 62.8839 38.6582C62.1097 39.1038 61.1781 39.3266 60.089 39.3266C58.895 39.3266 57.7928 39.0579 56.7824 38.5205C55.7721 37.97 54.9389 37.1311 54.2828 36.0039C53.6398 34.8766 53.3184 33.5593 53.3184 32.0519C53.3184 30.5446 53.6595 29.2272 54.3418 28.1C55.0241 26.9727 55.877 26.1404 56.9005 25.603C57.9371 25.0656 59.0459 24.7969 60.2268 24.7969C61.7227 24.7969 63.0217 25.1835 64.1239 25.9569C65.2392 26.7171 66.0003 27.733 66.407 29.0044L64.6553 29.7515C64.3404 28.7423 63.7893 27.9624 63.002 27.4118C62.2278 26.8482 61.3028 26.5664 60.2268 26.5664C58.8753 26.5664 57.7141 27.0448 56.7431 28.0017C55.7721 28.9585 55.2866 30.3086 55.2866 32.0519C55.2866 33.8083 55.759 35.1715 56.7037 36.1415C57.6616 37.0983 58.8097 37.5768 60.1481 37.5768C60.8829 37.5768 61.5324 37.4588 62.0966 37.2229C62.674 36.9869 63.1201 36.6789 63.435 36.2988C63.7631 35.9056 64.0058 35.5123 64.1633 35.1191C64.3338 34.7259 64.4322 34.3326 64.4585 33.9394H59.6167V32.2092H66.2889V39.0317ZM71.0057 36.7903C71.5831 37.3802 72.2851 37.6751 73.1117 37.6751C73.9384 37.6751 74.6338 37.3802 75.198 36.7903C75.7754 36.1874 76.0641 35.355 76.0641 34.2933C76.0641 33.2447 75.7754 32.4255 75.198 31.8357C74.6338 31.2327 73.9384 30.9312 73.1117 30.9312C72.2851 30.9312 71.5831 31.2327 71.0057 31.8357C70.4415 32.4255 70.1594 33.2447 70.1594 34.2933C70.1594 35.355 70.4415 36.1874 71.0057 36.7903ZM69.628 30.715C70.5465 29.7581 71.7077 29.2797 73.1117 29.2797C74.5157 29.2797 75.6704 29.7581 76.5758 30.715C77.4943 31.6587 77.9535 32.8515 77.9535 34.2933C77.9535 35.7483 77.5009 36.9542 76.5955 37.911C75.6901 38.8548 74.5288 39.3266 73.1117 39.3266C71.6946 39.3266 70.5334 38.8548 69.628 37.911C68.7226 36.9542 68.2699 35.7483 68.2699 34.2933C68.2699 32.8515 68.7226 31.6587 69.628 30.715ZM82.2692 36.7903C82.8465 37.3802 83.5485 37.6751 84.3752 37.6751C85.2019 37.6751 85.8973 37.3802 86.4615 36.7903C87.0389 36.1874 87.3275 35.355 87.3275 34.2933C87.3275 33.2447 87.0389 32.4255 86.4615 31.8357C85.8973 31.2327 85.2019 30.9312 84.3752 30.9312C83.5485 30.9312 82.8465 31.2327 82.2692 31.8357C81.705 32.4255 81.4229 33.2447 81.4229 34.2933C81.4229 35.355 81.705 36.1874 82.2692 36.7903ZM80.8914 30.715C81.8099 29.7581 82.9712 29.2797 84.3752 29.2797C85.7792 29.2797 86.9339 29.7581 87.8393 30.715C88.7578 31.6587 89.217 32.8515 89.217 34.2933C89.217 35.7483 88.7643 36.9542 87.859 37.911C86.9536 38.8548 85.7923 39.3266 84.3752 39.3266C82.9581 39.3266 81.7968 38.8548 80.8914 37.911C79.9861 36.9542 79.5334 35.7483 79.5334 34.2933C79.5334 32.8515 79.9861 31.6587 80.8914 30.715ZM90.8953 39.5429L92.6863 39.13C92.7519 39.7985 93.0209 40.349 93.4933 40.7816C93.9657 41.2272 94.5561 41.4501 95.2647 41.4501C97.1936 41.4501 98.158 40.4277 98.158 38.3829V37.0263C97.9218 37.485 97.5478 37.8586 97.0361 38.147C96.5375 38.4353 95.947 38.5795 95.2647 38.5795C94.005 38.5795 92.9619 38.1535 92.1352 37.3015C91.3217 36.4364 90.9149 35.3354 90.9149 33.9984C90.9149 32.7008 91.3217 31.6128 92.1352 30.7346C92.9488 29.8433 93.9919 29.3976 95.2647 29.3976C96.7081 29.3976 97.6791 29.8957 98.1777 30.8919V29.5746H100.008V38.3239C100.008 38.9531 99.923 39.5364 99.7524 40.0738C99.595 40.6243 99.3391 41.1289 98.9846 41.5877C98.6304 42.0465 98.1318 42.4069 97.4888 42.6691C96.859 42.9312 96.1176 43.0623 95.2647 43.0623C94.0969 43.0623 93.1062 42.7281 92.2927 42.0596C91.4792 41.4042 91.0134 40.5653 90.8953 39.5429ZM95.5403 37.0263C96.3407 37.0263 96.9902 36.751 97.4888 36.2005C97.9874 35.6369 98.2367 34.9028 98.2367 33.9984C98.2367 33.094 97.9874 32.3665 97.4888 31.816C96.9902 31.2524 96.3407 30.9705 95.5403 30.9705C94.7267 30.9705 94.0641 31.2458 93.5524 31.7963C93.0537 32.3468 92.8044 33.0809 92.8044 33.9984C92.8044 34.929 93.0472 35.6696 93.5327 36.2201C94.0313 36.7576 94.7005 37.0263 95.5403 37.0263ZM104.813 39.0317H102.963V24.7969H104.813V39.0317ZM109.161 33.3299H114.337C114.311 32.6221 114.075 32.0454 113.628 31.5997C113.182 31.1409 112.552 30.9116 111.739 30.9116C111.004 30.9116 110.401 31.1541 109.928 31.639C109.456 32.1109 109.2 32.6745 109.161 33.3299ZM114.613 35.7876L116.207 36.3381C115.931 37.2163 115.419 37.9372 114.672 38.5009C113.924 39.0514 113.018 39.3266 111.955 39.3266C110.63 39.3266 109.502 38.8744 108.57 37.97C107.652 37.0525 107.192 35.8204 107.192 34.2737C107.192 32.8318 107.638 31.639 108.531 30.6953C109.423 29.7515 110.486 29.2797 111.719 29.2797C113.149 29.2797 114.265 29.7319 115.065 30.6363C115.866 31.5276 116.266 32.727 116.266 34.2343C116.266 34.4703 116.253 34.6669 116.226 34.8242H109.101C109.115 35.6631 109.39 36.3512 109.928 36.8886C110.479 37.426 111.155 37.6947 111.955 37.6947C113.307 37.6947 114.193 37.059 114.613 35.7876ZM125.674 31.5997H128.469C129.295 31.5997 129.952 31.39 130.437 30.9705C130.923 30.538 131.165 29.9613 131.165 29.2403C131.165 28.5063 130.923 27.923 130.437 27.4905C129.952 27.0448 129.295 26.822 128.469 26.822H125.674V31.5997ZM128.823 33.3299H125.674V39.0317H123.745V25.0918H128.823C130.096 25.0918 131.132 25.485 131.933 26.2715C132.733 27.0579 133.133 28.041 133.133 29.2207C133.133 30.4135 132.733 31.3965 131.933 32.1699C131.132 32.9432 130.096 33.3299 128.823 33.3299ZM136.95 39.0317H135.1V24.7969H136.95V39.0317ZM139.507 36.4954C139.507 35.6827 139.769 35.0339 140.294 34.5489C140.819 34.0508 141.514 33.7428 142.38 33.6248L144.939 33.2513C145.425 33.1857 145.667 32.9498 145.667 32.5435C145.667 32.0454 145.497 31.639 145.156 31.3245C144.814 31.0099 144.303 30.8526 143.62 30.8526C142.991 30.8526 142.492 31.0295 142.124 31.3834C141.757 31.7242 141.541 32.183 141.475 32.7597L139.704 32.3468C139.795 31.4424 140.209 30.7084 140.944 30.1448C141.678 29.568 142.558 29.2797 143.581 29.2797C144.919 29.2797 145.91 29.6074 146.553 30.2627C147.196 30.905 147.517 31.7308 147.517 32.7401V37.4785C147.517 38.0421 147.557 38.5598 147.635 39.0317H145.825C145.759 38.6385 145.726 38.2125 145.726 37.7537C145.464 38.1732 145.077 38.5402 144.565 38.8548C144.066 39.1693 143.437 39.3266 142.676 39.3266C141.744 39.3266 140.983 39.0514 140.392 38.5009C139.802 37.9372 139.507 37.2687 139.507 36.4954ZM142.931 37.7734C143.758 37.7734 144.421 37.5506 144.919 37.1049C145.418 36.6592 145.667 35.9514 145.667 34.9815V34.5489L142.774 34.9815C142.354 35.047 142.02 35.1977 141.77 35.4337C141.521 35.6696 141.396 35.9908 141.396 36.3971C141.396 36.7641 141.534 37.0852 141.81 37.3605C142.098 37.6358 142.472 37.7734 142.931 37.7734ZM152.57 42.9837H150.543L152.905 37.9897L148.83 29.5746H150.956L153.909 36.1022L156.743 29.5746H158.731L152.57 42.9837Z" fill="white"/>
<path opacity="0.6" d="M58.7907 17.497V14.7332H56.1364V15.632H57.816C57.756 16.0065 57.3736 16.6656 56.3914 16.6656C55.4991 16.6656 54.7118 16.0439 54.7118 14.8455C54.7118 13.5872 55.5816 13.0404 56.3839 13.0404C57.2461 13.0404 57.6885 13.5872 57.8235 14.0591L58.8132 13.707C58.5508 12.8906 57.7785 12.0742 56.3839 12.0742C54.9443 12.0742 53.6621 13.1303 53.6621 14.8455C53.6621 16.5608 54.8843 17.6094 56.3164 17.6094C57.1187 17.6094 57.6435 17.2498 57.8835 16.8903L57.951 17.497H58.7907ZM64.5698 17.497V16.5233H62.2754V15.2949H64.3524V14.3737H62.2754V13.1603H64.5698V12.1866H61.2407V17.497H64.5698ZM71.0124 13.1678V12.1866H66.6111V13.1678H68.2907V17.497H69.3329V13.1678H71.0124ZM77.4548 17.497V12.1866H76.4051V17.497H77.4548ZM83.9875 13.1678V12.1866H79.5862V13.1678H81.2658V17.497H82.308V13.1678H83.9875ZM90.1374 14.838C90.1374 13.6396 90.9771 13.0704 91.7944 13.0704C92.6192 13.0704 93.459 13.6396 93.459 14.838C93.459 16.0365 92.6192 16.6057 91.7944 16.6057C90.9771 16.6057 90.1374 16.0365 90.1374 14.838ZM89.0652 14.8455C89.0652 16.5533 90.3548 17.6094 91.7944 17.6094C93.2415 17.6094 94.5312 16.5533 94.5312 14.8455C94.5312 13.1303 93.2415 12.0742 91.7944 12.0742C90.3548 12.0742 89.0652 13.1303 89.0652 14.8455ZM101.371 17.497V12.1866H100.336V15.6994L98.1239 12.1866H96.8342V17.497H97.8689V13.7295L100.284 17.497H101.371Z" fill="white"/>
<path d="M23.4314 38.6486C22.8763 39.007 22.2095 39.1153 21.584 38.9678L32.5752 27.9883L36.1374 31.5467L23.4314 38.6486Z" fill="white"/>
<path d="M20.2212 38.0738C19.9148 37.6667 19.7383 37.1668 19.7383 36.638V17.0803C19.7383 16.5515 19.9148 16.0516 20.2212 15.6445L31.4478 26.8591L20.2212 38.0738Z" fill="white"/>
<path d="M40.7877 28.9452L37.5861 30.7345L33.7051 26.8576L37.5864 22.9805L40.7882 24.77C41.5553 25.1993 42.0132 25.9797 42.0132 26.8576C42.0132 27.7355 41.5553 28.5158 40.7877 28.9452Z" fill="white"/>
<path d="M32.5744 25.7315L21.584 14.7527C21.7641 14.7103 21.9475 14.6875 22.1309 14.6875C22.5841 14.6875 23.0357 14.8162 23.4307 15.0712L36.1368 22.173L32.5744 25.7315Z" fill="white"/>
</svg>
