<svg width="130" height="39" viewBox="0 0 130 39" fill="none" xmlns="http://www.w3.org/2000/svg">
<rect x="0.0976562" width="129.148" height="39" fill="#BE7136"/>
<path d="M48.0978 28.451H46.9643L46.8352 27.0178C46.5865 27.4668 46.1799 27.8538 45.6156 28.1787C45.0513 28.5036 44.3721 28.666 43.5782 28.666C42.7078 28.666 41.9043 28.4701 41.1678 28.0784C40.4313 27.6771 39.8239 27.0655 39.3456 26.2438C38.8769 25.4221 38.6426 24.4618 38.6426 23.3629C38.6426 22.2641 38.8913 21.3038 39.3887 20.4821C39.8861 19.6604 40.5078 19.0536 41.2539 18.6619C42.0095 18.2701 42.8178 18.0742 43.6786 18.0742C44.7691 18.0742 45.716 18.3561 46.5195 18.9198C47.3325 19.474 47.8873 20.2146 48.1839 21.1414L46.9069 21.686C46.6773 20.9503 46.2756 20.3818 45.7017 19.9805C45.1373 19.5696 44.463 19.3642 43.6786 19.3642C42.6934 19.3642 41.8469 19.7129 41.1391 20.4104C40.4313 21.108 40.0774 22.0921 40.0774 23.3629C40.0774 24.6433 40.4217 25.6371 41.1104 26.3441C41.8087 27.0416 42.6456 27.3904 43.6213 27.3904C44.1569 27.3904 44.6304 27.3044 45.0417 27.1324C45.4626 26.9604 45.7878 26.7359 46.0173 26.4588C46.2565 26.1721 46.4334 25.8855 46.5482 25.5988C46.6726 25.3122 46.7443 25.0255 46.7634 24.7389H43.2339V23.4776H48.0978V28.451ZM51.5362 26.8171C51.957 27.2471 52.4688 27.4621 53.0714 27.4621C53.674 27.4621 54.1809 27.2471 54.5922 26.8171C55.0131 26.3776 55.2236 25.7708 55.2236 24.9969C55.2236 24.2325 55.0131 23.6353 54.5922 23.2053C54.1809 22.7658 53.674 22.546 53.0714 22.546C52.4688 22.546 51.957 22.7658 51.5362 23.2053C51.1249 23.6353 50.9192 24.2325 50.9192 24.9969C50.9192 25.7708 51.1249 26.3776 51.5362 26.8171ZM50.5318 22.3883C51.2014 21.6908 52.0479 21.3421 53.0714 21.3421C54.0949 21.3421 54.9366 21.6908 55.5966 22.3883C56.2662 23.0763 56.6009 23.9458 56.6009 24.9969C56.6009 26.0575 56.2709 26.9365 55.6109 27.6341C54.9509 28.322 54.1044 28.666 53.0714 28.666C52.0383 28.666 51.1918 28.322 50.5318 27.6341C49.8718 26.9365 49.5418 26.0575 49.5418 24.9969C49.5418 23.9458 49.8718 23.0763 50.5318 22.3883ZM59.7469 26.8171C60.1678 27.2471 60.6795 27.4621 61.2821 27.4621C61.8847 27.4621 62.3917 27.2471 62.803 26.8171C63.2239 26.3776 63.4343 25.7708 63.4343 24.9969C63.4343 24.2325 63.2239 23.6353 62.803 23.2053C62.3917 22.7658 61.8847 22.546 61.2821 22.546C60.6795 22.546 60.1678 22.7658 59.7469 23.2053C59.3356 23.6353 59.13 24.2325 59.13 24.9969C59.13 25.7708 59.3356 26.3776 59.7469 26.8171ZM58.7426 22.3883C59.4121 21.6908 60.2587 21.3421 61.2821 21.3421C62.3056 21.3421 63.1474 21.6908 63.8074 22.3883C64.4769 23.0763 64.8117 23.9458 64.8117 24.9969C64.8117 26.0575 64.4817 26.9365 63.8217 27.6341C63.1617 28.322 62.3152 28.666 61.2821 28.666C60.2491 28.666 59.4026 28.322 58.7426 27.6341C58.0826 26.9365 57.7526 26.0575 57.7526 24.9969C57.7526 23.9458 58.0826 23.0763 58.7426 22.3883ZM66.0351 28.8237L67.3407 28.5227C67.3886 29.01 67.5846 29.4113 67.929 29.7266C68.2733 30.0515 68.7038 30.2139 69.2203 30.2139C70.6264 30.2139 71.3294 29.4686 71.3294 27.978V26.9891C71.1572 27.3235 70.8846 27.5958 70.5116 27.8061C70.1481 28.0163 69.7177 28.1214 69.2203 28.1214C68.302 28.1214 67.5416 27.8108 66.939 27.1898C66.346 26.5591 66.0494 25.7565 66.0494 24.7819C66.0494 23.8359 66.346 23.0429 66.939 22.4027C67.532 21.7529 68.2925 21.428 69.2203 21.428C70.2725 21.428 70.9803 21.7911 71.3438 22.5173V21.557H72.6782V27.935C72.6782 28.3937 72.6161 28.8189 72.4917 29.2106C72.3769 29.612 72.1904 29.9798 71.932 30.3143C71.6738 30.6487 71.3103 30.9114 70.8416 31.1025C70.3825 31.2937 69.842 31.3892 69.2203 31.3892C68.369 31.3892 67.6468 31.1455 67.0538 30.6582C66.4607 30.1805 66.1212 29.569 66.0351 28.8237ZM69.4212 26.9891C70.0046 26.9891 70.4781 26.7884 70.8416 26.3871C71.2051 25.9763 71.3868 25.4412 71.3868 24.7819C71.3868 24.1226 71.2051 23.5923 70.8416 23.191C70.4781 22.7801 70.0046 22.5747 69.4212 22.5747C68.8281 22.5747 68.3451 22.7753 67.972 23.1766C67.6086 23.5779 67.4268 24.113 67.4268 24.7819C67.4268 25.4603 67.6038 26.0001 67.9577 26.4015C68.3212 26.7932 68.809 26.9891 69.4212 26.9891ZM76.1805 28.451H74.8318V18.0742H76.1805V28.451ZM79.35 24.2946H83.1234C83.1043 23.7786 82.9321 23.3582 82.6069 23.0333C82.2817 22.6989 81.8226 22.5317 81.2295 22.5317C80.6939 22.5317 80.2539 22.7084 79.9095 23.062C79.5652 23.4059 79.3787 23.8168 79.35 24.2946ZM83.3243 26.0861L84.4865 26.4875C84.2856 27.1276 83.9126 27.6532 83.3673 28.064C82.8221 28.4654 82.1621 28.666 81.3873 28.666C80.4213 28.666 79.5987 28.3364 78.9195 27.6771C78.25 27.0082 77.9152 26.11 77.9152 24.9825C77.9152 23.9315 78.2404 23.062 78.8908 22.374C79.5413 21.686 80.316 21.3421 81.2152 21.3421C82.2578 21.3421 83.0708 21.6717 83.6543 22.331C84.2378 22.9807 84.5295 23.855 84.5295 24.9539C84.5295 25.1259 84.5199 25.2692 84.5008 25.3838H79.3069C79.3165 25.9954 79.5173 26.497 79.9095 26.8888C80.3113 27.2805 80.8039 27.4764 81.3873 27.4764C82.3726 27.4764 83.0182 27.013 83.3243 26.0861ZM91.3877 23.0333H93.4251C94.0277 23.0333 94.506 22.8804 94.8599 22.5747C95.2138 22.2593 95.3908 21.8389 95.3908 21.3134C95.3908 20.7783 95.2138 20.3531 94.8599 20.0378C94.506 19.7129 94.0277 19.5505 93.4251 19.5505H91.3877V23.0333ZM93.6834 24.2946H91.3877V28.451H89.9817V18.2892H93.6834C94.6112 18.2892 95.3669 18.5759 95.9503 19.1492C96.5338 19.7225 96.8256 20.4391 96.8256 21.2991C96.8256 22.1686 96.5338 22.8852 95.9503 23.4489C95.3669 24.0127 94.6112 24.2946 93.6834 24.2946ZM99.6077 28.451H98.259V18.0742H99.6077V28.451ZM101.472 26.6021C101.472 26.0097 101.663 25.5367 102.045 25.1832C102.428 24.8201 102.935 24.5956 103.566 24.5096L105.431 24.2372C105.785 24.1895 105.962 24.0175 105.962 23.7213C105.962 23.3582 105.838 23.062 105.589 22.8326C105.341 22.6033 104.968 22.4887 104.47 22.4887C104.011 22.4887 103.648 22.6177 103.38 22.8756C103.112 23.1241 102.954 23.4585 102.906 23.8789L101.615 23.5779C101.682 22.9186 101.983 22.3836 102.519 21.9727C103.055 21.5523 103.695 21.3421 104.441 21.3421C105.417 21.3421 106.139 21.5809 106.608 22.0587C107.077 22.5269 107.311 23.1288 107.311 23.8646V27.3187C107.311 27.7296 107.34 28.107 107.397 28.451H106.077C106.029 28.1644 106.005 27.8538 106.005 27.5194C105.814 27.8252 105.532 28.0927 105.159 28.322C104.795 28.5513 104.336 28.666 103.781 28.666C103.102 28.666 102.548 28.4654 102.117 28.064C101.687 27.6532 101.472 27.1659 101.472 26.6021ZM103.968 27.5337C104.571 27.5337 105.054 27.3713 105.417 27.0464C105.781 26.7216 105.962 26.2056 105.962 25.4985V25.1832L103.853 25.4985C103.547 25.5463 103.303 25.6562 103.121 25.8282C102.94 26.0001 102.849 26.2342 102.849 26.5305C102.849 26.798 102.949 27.0321 103.15 27.2327C103.361 27.4334 103.633 27.5337 103.968 27.5337ZM110.994 31.3319H109.517L111.238 27.6914L108.268 21.557H109.818L111.97 26.3155L114.036 21.557H115.485L110.994 31.3319Z" fill="white"/>
<path opacity="0.6" d="M42.6332 12.7538V10.7391H40.6983V11.3943H41.9226C41.8789 11.6673 41.6001 12.1478 40.8841 12.1478C40.2337 12.1478 39.6597 11.6946 39.6597 10.821C39.6597 9.90371 40.2938 9.50513 40.8786 9.50513C41.5072 9.50513 41.8297 9.90371 41.9281 10.2477L42.6495 9.99107C42.4582 9.39592 41.8953 8.80078 40.8786 8.80078C39.8292 8.80078 38.8945 9.57065 38.8945 10.821C38.8945 12.0713 39.7855 12.8357 40.8294 12.8357C41.4143 12.8357 41.7969 12.5737 41.9718 12.3116L42.021 12.7538H42.6332ZM46.8459 12.7538V12.044H45.1734V11.1486H46.6874V10.477H45.1734V9.59249H46.8459V8.88268H44.4191V12.7538H46.8459ZM51.5424 9.59795V8.88268H48.334V9.59795H49.5583V12.7538H50.3181V9.59795H51.5424ZM56.2387 12.7538V8.88268H55.4735V12.7538H56.2387ZM61.0009 9.59795V8.88268H57.7925V9.59795H59.0168V12.7538H59.7766V9.59795H61.0009ZM65.484 10.8155C65.484 9.94193 66.0961 9.52697 66.6919 9.52697C67.2932 9.52697 67.9053 9.94193 67.9053 10.8155C67.9053 11.6891 67.2932 12.1041 66.6919 12.1041C66.0961 12.1041 65.484 11.6891 65.484 10.8155ZM64.7024 10.821C64.7024 12.0659 65.6425 12.8357 66.6919 12.8357C67.7468 12.8357 68.6869 12.0659 68.6869 10.821C68.6869 9.57065 67.7468 8.80078 66.6919 8.80078C65.6425 8.80078 64.7024 9.57065 64.7024 10.821ZM73.6729 12.7538V8.88268H72.9186V11.4434L71.3059 8.88268H70.3658V12.7538H71.1201V10.0074L72.8803 12.7538H73.6729Z" fill="white"/>
<path d="M16.8565 28.1734C16.4518 28.4347 15.9658 28.5136 15.5098 28.4061L23.522 20.4023L26.1188 22.9963L16.8565 28.1734Z" fill="white"/>
<path d="M14.5161 27.7565C14.2927 27.4598 14.1641 27.0954 14.1641 26.7099V12.4529C14.1641 12.0674 14.2927 11.703 14.5161 11.4062L22.7 19.5814L14.5161 27.7565Z" fill="white"/>
<path d="M29.5087 21.102L27.1749 22.4064L24.3457 19.5802L27.1751 16.7539L29.5091 18.0584C30.0683 18.3714 30.4021 18.9402 30.4021 19.5802C30.4021 20.2202 30.0683 20.789 29.5087 21.102Z" fill="white"/>
<path d="M23.5235 18.7578L15.5117 10.7545C15.643 10.7236 15.7767 10.707 15.9104 10.707C16.2408 10.707 16.57 10.8009 16.858 10.9867L26.1203 16.1637L23.5235 18.7578Z" fill="white"/>
</svg>
