<svg width="50" height="50" viewBox="0 0 50 50" fill="none" xmlns="http://www.w3.org/2000/svg">
<circle cx="24.525" cy="24.525" r="24.525" fill="#BE7136"/>
<path d="M17.4192 26.2923L26.173 34.3552C26.4416 34.5959 26.8023 34.7296 27.177 34.7272C27.5518 34.7249 27.9105 34.5867 28.1755 34.3426C28.4405 34.0984 28.5905 33.768 28.593 33.4228C28.5956 33.0775 28.4505 32.7452 28.1892 32.4978L20.4443 25.3629L28.1875 18.2295C28.4488 17.982 28.5939 17.6498 28.5913 17.3045C28.5888 16.9593 28.4388 16.6288 28.1738 16.3847C27.9088 16.1406 27.5501 16.0024 27.1753 16C26.8006 15.9977 26.4399 16.1313 26.1713 16.3721L17.4175 24.4349C17.1502 24.6813 17 25.0153 17 25.3636C17 25.712 17.1502 26.046 17.4175 26.2923L17.4192 26.2923Z" fill="white"/>
</svg>
