<svg width="22" height="20" viewBox="0 0 22 20" fill="none" xmlns="http://www.w3.org/2000/svg">
<path d="M16.9623 12.2839C16.6974 12.5407 16.5757 12.9119 16.6361 13.276L17.5453 18.3078C17.622 18.7343 17.442 19.1659 17.085 19.4124C16.7353 19.668 16.2699 19.6987 15.8884 19.4942L11.3588 17.1317C11.2013 17.0478 11.0264 17.0028 10.8474 16.9977H10.5703C10.4741 17.012 10.38 17.0427 10.2941 17.0897L5.76344 19.4635C5.53947 19.576 5.28583 19.6159 5.03731 19.576C4.43185 19.4614 4.02788 18.8846 4.12708 18.2761L5.03731 13.2443C5.09765 12.8771 4.97594 12.5038 4.71106 12.243L1.01799 8.66349C0.709127 8.36383 0.601741 7.91383 0.742877 7.50781C0.879923 7.10281 1.2297 6.80724 1.65208 6.74077L6.73504 6.00338C7.12163 5.96349 7.46117 5.72827 7.63504 5.38054L9.87481 0.788494C9.92799 0.686221 9.99651 0.592131 10.0794 0.512358L10.1714 0.440767C10.2195 0.387585 10.2747 0.343608 10.3361 0.307812L10.4475 0.266903L10.6214 0.195312H11.052C11.4365 0.235199 11.775 0.465312 11.952 0.808949L14.2214 5.38054C14.385 5.71497 14.7031 5.94713 15.0703 6.00338L20.1532 6.74077C20.5828 6.80213 20.9417 7.09872 21.0839 7.50781C21.2179 7.91792 21.1023 8.36792 20.7873 8.66349L16.9623 12.2839Z" fill="white"/>
</svg>
