<svg width="22" height="20" viewBox="0 0 22 20" fill="none" xmlns="http://www.w3.org/2000/svg">
<path fill-rule="evenodd" clip-rule="evenodd" d="M16.8089 6.20724H21.1362C21.1362 2.73282 19.0544 0.703125 15.5271 0.703125H6.29073C2.76346 0.703125 0.681641 2.73282 0.681641 6.16292V13.6524C0.681641 17.0825 2.76346 19.1122 6.29073 19.1122H15.5271C19.0544 19.1122 21.1362 17.0825 21.1362 13.6524V13.3333H16.8089C14.8006 13.3333 13.1725 11.746 13.1725 9.78802C13.1725 7.82999 14.8006 6.24269 16.8089 6.24269V6.20724ZM16.8089 7.73173H20.3726C20.7943 7.73173 21.1362 8.06506 21.1362 8.47625V11.0643C21.1313 11.4735 20.7922 11.8041 20.3726 11.8089H16.8907C15.874 11.8222 14.985 11.1435 14.7544 10.178C14.6389 9.57865 14.801 8.96018 15.1973 8.48835C15.5936 8.01651 16.1835 7.73956 16.8089 7.73173ZM16.9635 10.4528H17.2998C17.7316 10.4528 18.0816 10.1115 18.0816 9.69052C18.0816 9.26954 17.7316 8.92827 17.2998 8.92827H16.9635C16.7569 8.92591 16.5581 9.00423 16.4112 9.14578C16.2643 9.28732 16.1816 9.4803 16.1816 9.68166C16.1816 10.1041 16.5302 10.4479 16.9635 10.4528ZM5.5271 6.20724H11.2998C11.7316 6.20724 12.0816 5.86597 12.0816 5.44499C12.0816 5.02402 11.7316 4.68275 11.2998 4.68275H5.5271C5.09883 4.68272 4.75026 5.01862 4.74528 5.43613C4.74525 5.85857 5.09384 6.20238 5.5271 6.20724Z" fill="white"/>
</svg>
